Project Version="4.4.0" TempoMode="FamiStudio" Name="Appears! Chip Jazz v1.1" Author="Claude Code"
	Instrument Name="LeadJazz"
		Envelope Type="Volume" Length="24" Values="6,9,11,12,12,11,11,10,10,9,9,8,8,7,7,7,6,6,6,5,5,5,5,5"
		Envelope Type="DutyCycle" Length="1" Values="2"
	Instrument Name="CompJazz"
		Envelope Type="Volume" Length="7" Values="7,6,5,3,2,1,0"
		Envelope Type="DutyCycle" Length="1" Values="1"
	Instrument Name="PadNight"
		Envelope Type="Volume" Length="10" Values="2,3,4,5,5,5,4,4,4,4"
		Envelope Type="DutyCycle" Length="1" Values="1"
	Instrument Name="BassJazz"
		Envelope Type="Volume" Length="1" Values="15"
	Instrument Name="HatTick"
		Envelope Type="Volume" Length="3" Values="3,1,0"
	Instrument Name="HatSoft"
		Envelope Type="Volume" Length="2" Values="2,0"
	Instrument Name="HatLoud"
		Envelope Type="Volume" Length="4" Values="7,4,2,0"
	Instrument Name="SnareBrush"
		Envelope Type="Volume" Length="4" Values="4,3,1,0"
	Instrument Name="SnareHot"
		Envelope Type="Volume" Length="5" Values="9,6,4,2,0"
	Song Name="M1 Field Jazz" Length="32" LoopPoint="0" PatternLength="16" BeatLength="4" NoteLength="9" Groove="12-12-6-6" GroovePaddingMode="Middle"
		Channel Type="Square1"
			Pattern Name="s100"
				Note Time="24" Value="E4" Duration="12" Instrument="LeadJazz" Volume="12" VibratoSpeed="0" VibratoDepth="0"
				Note Time="36" Value="G4" Duration="24" Instrument="LeadJazz"
				Note Time="60" Value="A4" Duration="12" Instrument="LeadJazz"
			Pattern Name="s101"
				Note Time="0" Value="C5" Duration="36" Instrument="LeadJazz"
				Note Time="60" Value="A4" Duration="12" Instrument="LeadJazz"
			Pattern Name="s102"
				Note Time="24" Value="F4" Duration="12" Instrument="LeadJazz"
				Note Time="36" Value="E4" Duration="24" Instrument="LeadJazz"
				Note Time="60" Value="D4" Duration="12" Instrument="LeadJazz"
			Pattern Name="s103"
				Note Time="0" Value="D4" Duration="24" Instrument="LeadJazz"
				Note Time="24" Value="B3" Duration="48" Instrument="LeadJazz"
			Pattern Name="s104"
				Note Time="36" Value="E4" Duration="24" Instrument="LeadJazz"
				Note Time="60" Value="G4" Duration="12" Instrument="LeadJazz"
				Note Time="72" Value="A4" Duration="24" Instrument="LeadJazz"
				Note Time="96" Value="C5" Duration="12" Instrument="LeadJazz"
				Note Time="108" Value="A4" Duration="36" Instrument="LeadJazz"
			Pattern Name="s105"
				Note Time="0" Value="C#5" Duration="24" Instrument="LeadJazz"
				Note Time="24" Value="E5" Duration="36" Instrument="LeadJazz"
				Note Time="72" Value="C#5" Duration="24" Instrument="LeadJazz"
				Note Time="96" Value="A4" Duration="12" Instrument="LeadJazz"
			Pattern Name="s106"
				Note Time="0" Value="D5" Duration="24" Instrument="LeadJazz"
				Note Time="24" Value="C5" Duration="12" Instrument="LeadJazz"
				Note Time="36" Value="A4" Duration="24" Instrument="LeadJazz"
				Note Time="72" Value="B4" Duration="24" Instrument="LeadJazz"
				Note Time="96" Value="G4" Duration="12" Instrument="LeadJazz"
			Pattern Name="s107"
				Note Time="0" Value="C5" Duration="60" Instrument="LeadJazz" VibratoSpeed="8" VibratoDepth="2"
			Pattern Name="s108"
				Note Time="0" Value="F5" Duration="24" Instrument="LeadJazz"
				Note Time="24" Value="D5" Duration="12" Instrument="LeadJazz"
				Note Time="36" Value="C5" Duration="24" Instrument="LeadJazz"
				Note Time="72" Value="B4" Duration="24" Instrument="LeadJazz"
				Note Time="96" Value="F4" Duration="12" Instrument="LeadJazz"
			Pattern Name="s109"
				Note Time="0" Value="E4" Duration="24" Instrument="LeadJazz"
				Note Time="24" Value="G4" Duration="12" Instrument="LeadJazz"
				Note Time="36" Value="C5" Duration="72" Instrument="LeadJazz" VibratoSpeed="8" VibratoDepth="2"
			Pattern Name="s110"
				Note Time="0" Value="A4" Duration="24" Instrument="LeadJazz" Volume="14" VibratoSpeed="0" VibratoDepth="0"
				Note Time="24" Value="G4" Duration="12" Instrument="LeadJazz"
				Note Time="36" Value="A4" Duration="36" Instrument="LeadJazz"
				Note Time="72" Value="C5" Duration="24" Instrument="LeadJazz"
				Note Time="96" Value="E5" Duration="36" Instrument="LeadJazz"
			Pattern Name="s111"
				Note Time="0" Value="D5" Duration="36" Instrument="LeadJazz"
				Note Time="72" Value="C#5" Duration="24" Instrument="LeadJazz"
				Note Time="96" Value="A4" Duration="36" Instrument="LeadJazz"
			Pattern Name="s112"
				Note Time="24" Value="F5" Duration="36" Instrument="LeadJazz"
				Note Time="72" Value="E5" Duration="24" Instrument="LeadJazz"
				Note Time="96" Value="D5" Duration="12" Instrument="LeadJazz"
			Pattern Name="s113"
				Note Time="0" Value="C5" Duration="24" Instrument="LeadJazz"
				Note Time="24" Value="B4" Duration="48" Instrument="LeadJazz"
			Pattern Name="s114"
				Note Time="0" Value="A4" Duration="24" Instrument="LeadJazz"
				Note Time="24" Value="G4" Duration="12" Instrument="LeadJazz"
				Note Time="36" Value="A4" Duration="36" Instrument="LeadJazz"
				Note Time="72" Value="C5" Duration="24" Instrument="LeadJazz"
				Note Time="96" Value="E5" Duration="36" Instrument="LeadJazz"
			Pattern Name="s115"
				Note Time="0" Value="D5" Duration="24" Instrument="LeadJazz"
				Note Time="24" Value="D#5" Duration="12" Instrument="LeadJazz"
				Note Time="36" Value="D5" Duration="24" Instrument="LeadJazz"
				Note Time="60" Value="C5" Duration="12" Instrument="LeadJazz"
				Note Time="72" Value="A4" Duration="36" Instrument="LeadJazz"
			Pattern Name="s116"
				Note Time="0" Value="B4" Duration="24" Instrument="LeadJazz"
				Note Time="36" Value="D#5" Duration="60" Instrument="LeadJazz" VibratoSpeed="8" VibratoDepth="2"
			Pattern Name="s117"
				Note Time="0" Value="E4" Duration="24" Instrument="LeadJazz" Volume="12" VibratoSpeed="0" VibratoDepth="0"
				Note Time="36" Value="G4" Duration="24" Instrument="LeadJazz"
				Note Time="60" Value="A4" Duration="12" Instrument="LeadJazz"
			Pattern Name="s118"
				Note Time="0" Value="C5" Duration="36" Instrument="LeadJazz" VibratoSpeed="8" VibratoDepth="2"
			PatternInstance Time="0" Pattern="s100"
			PatternInstance Time="1" Pattern="s101"
			PatternInstance Time="2" Pattern="s102"
			PatternInstance Time="3" Pattern="s103"
			PatternInstance Time="4" Pattern="s104"
			PatternInstance Time="5" Pattern="s105"
			PatternInstance Time="6" Pattern="s106"
			PatternInstance Time="7" Pattern="s107"
			PatternInstance Time="8" Pattern="s100"
			PatternInstance Time="9" Pattern="s101"
			PatternInstance Time="10" Pattern="s102"
			PatternInstance Time="11" Pattern="s103"
			PatternInstance Time="12" Pattern="s104"
			PatternInstance Time="13" Pattern="s105"
			PatternInstance Time="14" Pattern="s108"
			PatternInstance Time="15" Pattern="s109"
			PatternInstance Time="16" Pattern="s110"
			PatternInstance Time="17" Pattern="s111"
			PatternInstance Time="18" Pattern="s112"
			PatternInstance Time="19" Pattern="s113"
			PatternInstance Time="20" Pattern="s114"
			PatternInstance Time="21" Pattern="s111"
			PatternInstance Time="22" Pattern="s115"
			PatternInstance Time="23" Pattern="s116"
			PatternInstance Time="24" Pattern="s117"
			PatternInstance Time="25" Pattern="s101"
			PatternInstance Time="26" Pattern="s102"
			PatternInstance Time="27" Pattern="s103"
			PatternInstance Time="28" Pattern="s104"
			PatternInstance Time="29" Pattern="s105"
			PatternInstance Time="30" Pattern="s106"
			PatternInstance Time="31" Pattern="s118"
		Channel Type="Square2"
			Pattern Name="s200"
				Note Time="60" Value="E4" Duration="6" Instrument="CompJazz"
				Note Time="132" Value="B4" Duration="6" Instrument="CompJazz"
			Pattern Name="s201"
				Note Time="60" Value="C4" Duration="6" Instrument="CompJazz"
				Note Time="132" Value="G4" Duration="6" Instrument="CompJazz"
			Pattern Name="s202"
				Note Time="60" Value="F4" Duration="6" Instrument="CompJazz"
				Note Time="132" Value="C5" Duration="6" Instrument="CompJazz"
			Pattern Name="s203"
				Note Time="60" Value="B3" Duration="6" Instrument="CompJazz"
				Note Time="132" Value="F4" Duration="6" Instrument="CompJazz"
			Pattern Name="s204"
				Note Time="60" Value="C#4" Duration="6" Instrument="CompJazz"
				Note Time="132" Value="G4" Duration="6" Instrument="CompJazz"
			Pattern Name="s205"
				Note Time="60" Value="F4" Duration="6" Instrument="CompJazz"
				Note Time="132" Value="B3" Duration="6" Instrument="CompJazz"
			Pattern Name="s206"
				Note Time="60" Value="A3" Duration="6" Instrument="CompJazz"
				Note Time="132" Value="E4" Duration="6" Instrument="CompJazz"
			Pattern Name="s207"
				Note Time="60" Value="G3" Duration="6" Instrument="CompJazz"
				Note Time="132" Value="C#4" Duration="6" Instrument="CompJazz"
			Pattern Name="s208"
				Note Time="60" Value="B3" Duration="6" Instrument="CompJazz"
			PatternInstance Time="0" Pattern="s200"
			PatternInstance Time="1" Pattern="s201"
			PatternInstance Time="2" Pattern="s202"
			PatternInstance Time="3" Pattern="s203"
			PatternInstance Time="4" Pattern="s200"
			PatternInstance Time="5" Pattern="s204"
			PatternInstance Time="6" Pattern="s205"
			PatternInstance Time="7" Pattern="s200"
			PatternInstance Time="8" Pattern="s200"
			PatternInstance Time="9" Pattern="s201"
			PatternInstance Time="10" Pattern="s202"
			PatternInstance Time="11" Pattern="s203"
			PatternInstance Time="12" Pattern="s200"
			PatternInstance Time="13" Pattern="s204"
			PatternInstance Time="14" Pattern="s205"
			PatternInstance Time="15" Pattern="s200"
			PatternInstance Time="16" Pattern="s206"
			PatternInstance Time="17" Pattern="s207"
			PatternInstance Time="18" Pattern="s202"
			PatternInstance Time="19" Pattern="s203"
			PatternInstance Time="20" Pattern="s206"
			PatternInstance Time="21" Pattern="s207"
			PatternInstance Time="22" Pattern="s202"
			PatternInstance Time="23" Pattern="s208"
			PatternInstance Time="24" Pattern="s200"
			PatternInstance Time="25" Pattern="s201"
			PatternInstance Time="26" Pattern="s202"
			PatternInstance Time="27" Pattern="s203"
			PatternInstance Time="28" Pattern="s200"
			PatternInstance Time="29" Pattern="s204"
			PatternInstance Time="30" Pattern="s205"
			PatternInstance Time="31" Pattern="s200"
		Channel Type="Triangle"
			Pattern Name="te00"
				Note Time="0" Value="C2" Duration="36" Instrument="BassJazz"
				Note Time="36" Value="E2" Duration="36" Instrument="BassJazz"
				Note Time="72" Value="G2" Duration="36" Instrument="BassJazz"
				Note Time="108" Value="A2" Duration="36" Instrument="BassJazz"
			Pattern Name="te01"
				Note Time="0" Value="A2" Duration="36" Instrument="BassJazz"
				Note Time="36" Value="G2" Duration="36" Instrument="BassJazz"
				Note Time="72" Value="E2" Duration="36" Instrument="BassJazz"
				Note Time="108" Value="C2" Duration="36" Instrument="BassJazz"
			Pattern Name="te02"
				Note Time="0" Value="D2" Duration="36" Instrument="BassJazz"
				Note Time="36" Value="F2" Duration="36" Instrument="BassJazz"
				Note Time="72" Value="A2" Duration="36" Instrument="BassJazz"
				Note Time="108" Value="C3" Duration="36" Instrument="BassJazz"
			Pattern Name="te03"
				Note Time="0" Value="B2" Duration="36" Instrument="BassJazz"
				Note Time="36" Value="G2" Duration="36" Instrument="BassJazz"
				Note Time="72" Value="F2" Duration="36" Instrument="BassJazz"
				Note Time="108" Value="D2" Duration="36" Instrument="BassJazz"
			Pattern Name="te04"
				Note Time="0" Value="C2" Duration="36" Instrument="BassJazz"
				Note Time="36" Value="E2" Duration="36" Instrument="BassJazz"
				Note Time="72" Value="G2" Duration="36" Instrument="BassJazz"
				Note Time="108" Value="A#2" Duration="36" Instrument="BassJazz"
			Pattern Name="te05"
				Note Time="0" Value="A2" Duration="36" Instrument="BassJazz"
				Note Time="36" Value="C#3" Duration="36" Instrument="BassJazz"
				Note Time="72" Value="E3" Duration="36" Instrument="BassJazz"
				Note Time="108" Value="C#3" Duration="36" Instrument="BassJazz"
			Pattern Name="te06"
				Note Time="0" Value="D3" Duration="36" Instrument="BassJazz"
				Note Time="36" Value="A2" Duration="36" Instrument="BassJazz"
				Note Time="72" Value="G2" Duration="36" Instrument="BassJazz"
				Note Time="108" Value="B2" Duration="36" Instrument="BassJazz"
			Pattern Name="te07"
				Note Time="0" Value="C3" Duration="36" Instrument="BassJazz"
				Note Time="36" Value="G2" Duration="36" Instrument="BassJazz"
				Note Time="72" Value="E2" Duration="36" Instrument="BassJazz"
				Note Time="108" Value="G2" Duration="36" Instrument="BassJazz"
			Pattern Name="te08"
				Note Time="0" Value="F2" Duration="36" Instrument="BassJazz"
				Note Time="36" Value="A2" Duration="36" Instrument="BassJazz"
				Note Time="72" Value="C3" Duration="36" Instrument="BassJazz"
				Note Time="108" Value="A2" Duration="36" Instrument="BassJazz"
			Pattern Name="te09"
				Note Time="0" Value="E2" Duration="36" Instrument="BassJazz"
				Note Time="36" Value="G2" Duration="36" Instrument="BassJazz"
				Note Time="72" Value="A2" Duration="36" Instrument="BassJazz"
				Note Time="108" Value="C#3" Duration="36" Instrument="BassJazz"
			Pattern Name="te10"
				Note Time="0" Value="D2" Duration="36" Instrument="BassJazz"
				Note Time="36" Value="F2" Duration="36" Instrument="BassJazz"
				Note Time="72" Value="A2" Duration="36" Instrument="BassJazz"
				Note Time="108" Value="F2" Duration="36" Instrument="BassJazz"
			Pattern Name="te11"
				Note Time="0" Value="G2" Duration="36" Instrument="BassJazz"
				Note Time="36" Value="B2" Duration="36" Instrument="BassJazz"
				Note Time="72" Value="D3" Duration="36" Instrument="BassJazz"
				Note Time="108" Value="B2" Duration="36" Instrument="BassJazz"
			Pattern Name="te12"
				Note Time="0" Value="F2" Duration="36" Instrument="BassJazz"
				Note Time="36" Value="C3" Duration="36" Instrument="BassJazz"
				Note Time="72" Value="A2" Duration="36" Instrument="BassJazz"
				Note Time="108" Value="F2" Duration="36" Instrument="BassJazz"
			Pattern Name="te13"
				Note Time="0" Value="E2" Duration="36" Instrument="BassJazz"
				Note Time="36" Value="B2" Duration="36" Instrument="BassJazz"
				Note Time="72" Value="A2" Duration="36" Instrument="BassJazz"
				Note Time="108" Value="G2" Duration="36" Instrument="BassJazz"
			Pattern Name="te14"
				Note Time="0" Value="D2" Duration="36" Instrument="BassJazz"
				Note Time="36" Value="A2" Duration="36" Instrument="BassJazz"
				Note Time="72" Value="F2" Duration="36" Instrument="BassJazz"
				Note Time="108" Value="D2" Duration="36" Instrument="BassJazz"
			Pattern Name="te15"
				Note Time="0" Value="G2" Duration="36" Instrument="BassJazz"
				Note Time="36" Value="B2" Duration="36" Instrument="BassJazz"
				Note Time="72" Value="D#3" Duration="36" Instrument="BassJazz"
				Note Time="108" Value="B2" Duration="36" Instrument="BassJazz"
			Pattern Name="te16"
				Note Time="0" Value="C2" Duration="36" Instrument="BassJazz"
				Note Time="36" Value="E2" Duration="36" Instrument="BassJazz"
				Note Time="72" Value="G2" Duration="36" Instrument="BassJazz"
				Note Time="108" Value="B1" Duration="36" Instrument="BassJazz"
			PatternInstance Time="0" Pattern="te00"
			PatternInstance Time="1" Pattern="te01"
			PatternInstance Time="2" Pattern="te02"
			PatternInstance Time="3" Pattern="te03"
			PatternInstance Time="4" Pattern="te04"
			PatternInstance Time="5" Pattern="te05"
			PatternInstance Time="6" Pattern="te06"
			PatternInstance Time="7" Pattern="te07"
			PatternInstance Time="8" Pattern="te00"
			PatternInstance Time="9" Pattern="te01"
			PatternInstance Time="10" Pattern="te02"
			PatternInstance Time="11" Pattern="te03"
			PatternInstance Time="12" Pattern="te04"
			PatternInstance Time="13" Pattern="te05"
			PatternInstance Time="14" Pattern="te06"
			PatternInstance Time="15" Pattern="te07"
			PatternInstance Time="16" Pattern="te08"
			PatternInstance Time="17" Pattern="te09"
			PatternInstance Time="18" Pattern="te10"
			PatternInstance Time="19" Pattern="te11"
			PatternInstance Time="20" Pattern="te12"
			PatternInstance Time="21" Pattern="te13"
			PatternInstance Time="22" Pattern="te14"
			PatternInstance Time="23" Pattern="te15"
			PatternInstance Time="24" Pattern="te00"
			PatternInstance Time="25" Pattern="te01"
			PatternInstance Time="26" Pattern="te02"
			PatternInstance Time="27" Pattern="te03"
			PatternInstance Time="28" Pattern="te04"
			PatternInstance Time="29" Pattern="te05"
			PatternInstance Time="30" Pattern="te06"
			PatternInstance Time="31" Pattern="te16"
		Channel Type="Noise"
			Pattern Name="ne00"
				Note Time="0" Value="F#5" Duration="12" Instrument="HatTick"
				Note Time="36" Value="D4" Duration="12" Instrument="SnareBrush"
				Note Time="60" Value="F#5" Duration="6" Instrument="HatSoft"
				Note Time="72" Value="F#5" Duration="12" Instrument="HatTick"
				Note Time="108" Value="D4" Duration="12" Instrument="SnareBrush"
				Note Time="132" Value="F#5" Duration="6" Instrument="HatSoft"
			Pattern Name="ne01"
				Note Time="0" Value="F#5" Duration="12" Instrument="HatTick"
				Note Time="36" Value="D4" Duration="12" Instrument="SnareBrush"
				Note Time="60" Value="F#5" Duration="6" Instrument="HatSoft"
				Note Time="72" Value="F#5" Duration="12" Instrument="HatTick"
				Note Time="108" Value="D4" Duration="12" Instrument="SnareBrush"
				Note Time="132" Value="D4" Duration="6" Instrument="SnareBrush"
			PatternInstance Time="0" Pattern="ne00"
			PatternInstance Time="1" Pattern="ne00"
			PatternInstance Time="2" Pattern="ne00"
			PatternInstance Time="3" Pattern="ne00"
			PatternInstance Time="4" Pattern="ne00"
			PatternInstance Time="5" Pattern="ne00"
			PatternInstance Time="6" Pattern="ne00"
			PatternInstance Time="7" Pattern="ne01"
			PatternInstance Time="8" Pattern="ne00"
			PatternInstance Time="9" Pattern="ne00"
			PatternInstance Time="10" Pattern="ne00"
			PatternInstance Time="11" Pattern="ne00"
			PatternInstance Time="12" Pattern="ne00"
			PatternInstance Time="13" Pattern="ne00"
			PatternInstance Time="14" Pattern="ne00"
			PatternInstance Time="15" Pattern="ne01"
			PatternInstance Time="16" Pattern="ne00"
			PatternInstance Time="17" Pattern="ne00"
			PatternInstance Time="18" Pattern="ne00"
			PatternInstance Time="19" Pattern="ne00"
			PatternInstance Time="20" Pattern="ne00"
			PatternInstance Time="21" Pattern="ne00"
			PatternInstance Time="22" Pattern="ne00"
			PatternInstance Time="23" Pattern="ne01"
			PatternInstance Time="24" Pattern="ne00"
			PatternInstance Time="25" Pattern="ne00"
			PatternInstance Time="26" Pattern="ne00"
			PatternInstance Time="27" Pattern="ne00"
			PatternInstance Time="28" Pattern="ne00"
			PatternInstance Time="29" Pattern="ne00"
			PatternInstance Time="30" Pattern="ne00"
			PatternInstance Time="31" Pattern="ne01"
		Channel Type="DPCM"
	Song Name="M1a Night Jazz" Length="32" LoopPoint="0" PatternLength="16" BeatLength="4" NoteLength="12" Groove="16-16-8-8" GroovePaddingMode="Middle"
		Channel Type="Square1"
		Channel Type="Square2"
			Pattern Name="s200"
				Note Time="0" Value="C3" Duration="192" Instrument="PadNight"
			Pattern Name="s201"
				Note Time="0" Value="A2" Duration="192" Instrument="PadNight"
			Pattern Name="s202"
				Note Time="0" Value="D3" Duration="192" Instrument="PadNight"
			Pattern Name="s203"
				Note Time="0" Value="G2" Duration="192" Instrument="PadNight"
			Pattern Name="s204"
				Note Time="0" Value="D3" Duration="96" Instrument="PadNight"
				Note Time="96" Value="G2" Duration="96" Instrument="PadNight"
			Pattern Name="s205"
				Note Time="0" Value="F2" Duration="192" Instrument="PadNight"
			Pattern Name="s206"
				Note Time="0" Value="E3" Duration="96" Instrument="PadNight"
				Note Time="96" Value="A2" Duration="96" Instrument="PadNight"
			PatternInstance Time="0" Pattern="s200"
			PatternInstance Time="1" Pattern="s201"
			PatternInstance Time="2" Pattern="s202"
			PatternInstance Time="3" Pattern="s203"
			PatternInstance Time="4" Pattern="s200"
			PatternInstance Time="5" Pattern="s201"
			PatternInstance Time="6" Pattern="s204"
			PatternInstance Time="7" Pattern="s200"
			PatternInstance Time="8" Pattern="s200"
			PatternInstance Time="9" Pattern="s201"
			PatternInstance Time="10" Pattern="s202"
			PatternInstance Time="11" Pattern="s203"
			PatternInstance Time="12" Pattern="s200"
			PatternInstance Time="13" Pattern="s201"
			PatternInstance Time="14" Pattern="s204"
			PatternInstance Time="15" Pattern="s200"
			PatternInstance Time="16" Pattern="s205"
			PatternInstance Time="17" Pattern="s206"
			PatternInstance Time="18" Pattern="s202"
			PatternInstance Time="19" Pattern="s203"
			PatternInstance Time="20" Pattern="s205"
			PatternInstance Time="21" Pattern="s206"
			PatternInstance Time="22" Pattern="s202"
			PatternInstance Time="23" Pattern="s203"
			PatternInstance Time="24" Pattern="s200"
			PatternInstance Time="25" Pattern="s201"
			PatternInstance Time="26" Pattern="s202"
			PatternInstance Time="27" Pattern="s203"
			PatternInstance Time="28" Pattern="s200"
			PatternInstance Time="29" Pattern="s201"
			PatternInstance Time="30" Pattern="s204"
			PatternInstance Time="31" Pattern="s200"
		Channel Type="Triangle"
			Pattern Name="te00"
				Note Time="32" Value="E4" Duration="16" Instrument="BassJazz" Volume="12" VibratoSpeed="0" VibratoDepth="0"
				Note Time="48" Value="G4" Duration="32" Instrument="BassJazz"
				Note Time="80" Value="A4" Duration="16" Instrument="BassJazz"
			Pattern Name="te01"
				Note Time="0" Value="C5" Duration="48" Instrument="BassJazz"
				Note Time="80" Value="A4" Duration="16" Instrument="BassJazz"
			Pattern Name="te02"
				Note Time="32" Value="F4" Duration="16" Instrument="BassJazz"
				Note Time="48" Value="E4" Duration="32" Instrument="BassJazz"
				Note Time="80" Value="D4" Duration="16" Instrument="BassJazz"
			Pattern Name="te03"
				Note Time="0" Value="D4" Duration="32" Instrument="BassJazz"
				Note Time="32" Value="B3" Duration="64" Instrument="BassJazz"
			Pattern Name="te04"
				Note Time="48" Value="E4" Duration="32" Instrument="BassJazz"
				Note Time="80" Value="G4" Duration="16" Instrument="BassJazz"
				Note Time="96" Value="A4" Duration="32" Instrument="BassJazz"
				Note Time="128" Value="C5" Duration="16" Instrument="BassJazz"
				Note Time="144" Value="A4" Duration="48" Instrument="BassJazz"
			Pattern Name="te05"
				Note Time="0" Value="C#5" Duration="32" Instrument="BassJazz"
				Note Time="32" Value="E5" Duration="48" Instrument="BassJazz"
				Note Time="96" Value="C#5" Duration="32" Instrument="BassJazz"
				Note Time="128" Value="A4" Duration="16" Instrument="BassJazz"
			Pattern Name="te06"
				Note Time="0" Value="D5" Duration="32" Instrument="BassJazz"
				Note Time="32" Value="C5" Duration="16" Instrument="BassJazz"
				Note Time="48" Value="A4" Duration="32" Instrument="BassJazz"
				Note Time="96" Value="B4" Duration="32" Instrument="BassJazz"
				Note Time="128" Value="G4" Duration="16" Instrument="BassJazz"
			Pattern Name="te07"
				Note Time="0" Value="C5" Duration="80" Instrument="BassJazz" VibratoSpeed="8" VibratoDepth="2"
			Pattern Name="te08"
				Note Time="0" Value="F5" Duration="32" Instrument="BassJazz"
				Note Time="32" Value="D5" Duration="16" Instrument="BassJazz"
				Note Time="48" Value="C5" Duration="32" Instrument="BassJazz"
				Note Time="96" Value="B4" Duration="32" Instrument="BassJazz"
				Note Time="128" Value="F4" Duration="16" Instrument="BassJazz"
			Pattern Name="te09"
				Note Time="0" Value="E4" Duration="32" Instrument="BassJazz"
				Note Time="32" Value="G4" Duration="16" Instrument="BassJazz"
				Note Time="48" Value="C5" Duration="96" Instrument="BassJazz" VibratoSpeed="8" VibratoDepth="2"
			Pattern Name="te10"
				Note Time="0" Value="A4" Duration="32" Instrument="BassJazz" Volume="14" VibratoSpeed="0" VibratoDepth="0"
				Note Time="32" Value="G4" Duration="16" Instrument="BassJazz"
				Note Time="48" Value="A4" Duration="48" Instrument="BassJazz"
				Note Time="96" Value="C5" Duration="32" Instrument="BassJazz"
				Note Time="128" Value="E5" Duration="48" Instrument="BassJazz"
			Pattern Name="te11"
				Note Time="0" Value="D5" Duration="48" Instrument="BassJazz"
				Note Time="96" Value="C#5" Duration="32" Instrument="BassJazz"
				Note Time="128" Value="A4" Duration="48" Instrument="BassJazz"
			Pattern Name="te12"
				Note Time="32" Value="F5" Duration="48" Instrument="BassJazz"
				Note Time="96" Value="E5" Duration="32" Instrument="BassJazz"
				Note Time="128" Value="D5" Duration="16" Instrument="BassJazz"
			Pattern Name="te13"
				Note Time="0" Value="C5" Duration="32" Instrument="BassJazz"
				Note Time="32" Value="B4" Duration="64" Instrument="BassJazz"
			Pattern Name="te14"
				Note Time="0" Value="A4" Duration="32" Instrument="BassJazz"
				Note Time="32" Value="G4" Duration="16" Instrument="BassJazz"
				Note Time="48" Value="A4" Duration="48" Instrument="BassJazz"
				Note Time="96" Value="C5" Duration="32" Instrument="BassJazz"
				Note Time="128" Value="E5" Duration="48" Instrument="BassJazz"
			Pattern Name="te15"
				Note Time="0" Value="D5" Duration="32" Instrument="BassJazz"
				Note Time="32" Value="D#5" Duration="16" Instrument="BassJazz"
				Note Time="48" Value="D5" Duration="32" Instrument="BassJazz"
				Note Time="80" Value="C5" Duration="16" Instrument="BassJazz"
				Note Time="96" Value="A4" Duration="48" Instrument="BassJazz"
			Pattern Name="te16"
				Note Time="0" Value="B4" Duration="32" Instrument="BassJazz"
				Note Time="48" Value="D#5" Duration="80" Instrument="BassJazz" VibratoSpeed="8" VibratoDepth="2"
			Pattern Name="te17"
				Note Time="0" Value="E4" Duration="32" Instrument="BassJazz" Volume="12" VibratoSpeed="0" VibratoDepth="0"
				Note Time="48" Value="G4" Duration="32" Instrument="BassJazz"
				Note Time="80" Value="A4" Duration="16" Instrument="BassJazz"
			Pattern Name="te18"
				Note Time="0" Value="C5" Duration="48" Instrument="BassJazz" VibratoSpeed="8" VibratoDepth="2"
			PatternInstance Time="0" Pattern="te00"
			PatternInstance Time="1" Pattern="te01"
			PatternInstance Time="2" Pattern="te02"
			PatternInstance Time="3" Pattern="te03"
			PatternInstance Time="4" Pattern="te04"
			PatternInstance Time="5" Pattern="te05"
			PatternInstance Time="6" Pattern="te06"
			PatternInstance Time="7" Pattern="te07"
			PatternInstance Time="8" Pattern="te00"
			PatternInstance Time="9" Pattern="te01"
			PatternInstance Time="10" Pattern="te02"
			PatternInstance Time="11" Pattern="te03"
			PatternInstance Time="12" Pattern="te04"
			PatternInstance Time="13" Pattern="te05"
			PatternInstance Time="14" Pattern="te08"
			PatternInstance Time="15" Pattern="te09"
			PatternInstance Time="16" Pattern="te10"
			PatternInstance Time="17" Pattern="te11"
			PatternInstance Time="18" Pattern="te12"
			PatternInstance Time="19" Pattern="te13"
			PatternInstance Time="20" Pattern="te14"
			PatternInstance Time="21" Pattern="te11"
			PatternInstance Time="22" Pattern="te15"
			PatternInstance Time="23" Pattern="te16"
			PatternInstance Time="24" Pattern="te17"
			PatternInstance Time="25" Pattern="te01"
			PatternInstance Time="26" Pattern="te02"
			PatternInstance Time="27" Pattern="te03"
			PatternInstance Time="28" Pattern="te04"
			PatternInstance Time="29" Pattern="te05"
			PatternInstance Time="30" Pattern="te06"
			PatternInstance Time="31" Pattern="te18"
		Channel Type="Noise"
			Pattern Name="ne00"
				Note Time="0" Value="F#5" Duration="16" Instrument="HatTick"
				Note Time="96" Value="F#5" Duration="16" Instrument="HatTick"
			PatternInstance Time="0" Pattern="ne00"
			PatternInstance Time="1" Pattern="ne00"
			PatternInstance Time="2" Pattern="ne00"
			PatternInstance Time="3" Pattern="ne00"
			PatternInstance Time="4" Pattern="ne00"
			PatternInstance Time="5" Pattern="ne00"
			PatternInstance Time="6" Pattern="ne00"
			PatternInstance Time="7" Pattern="ne00"
			PatternInstance Time="8" Pattern="ne00"
			PatternInstance Time="9" Pattern="ne00"
			PatternInstance Time="10" Pattern="ne00"
			PatternInstance Time="11" Pattern="ne00"
			PatternInstance Time="12" Pattern="ne00"
			PatternInstance Time="13" Pattern="ne00"
			PatternInstance Time="14" Pattern="ne00"
			PatternInstance Time="15" Pattern="ne00"
			PatternInstance Time="16" Pattern="ne00"
			PatternInstance Time="17" Pattern="ne00"
			PatternInstance Time="18" Pattern="ne00"
			PatternInstance Time="19" Pattern="ne00"
			PatternInstance Time="20" Pattern="ne00"
			PatternInstance Time="21" Pattern="ne00"
			PatternInstance Time="22" Pattern="ne00"
			PatternInstance Time="23" Pattern="ne00"
			PatternInstance Time="24" Pattern="ne00"
			PatternInstance Time="25" Pattern="ne00"
			PatternInstance Time="26" Pattern="ne00"
			PatternInstance Time="27" Pattern="ne00"
			PatternInstance Time="28" Pattern="ne00"
			PatternInstance Time="29" Pattern="ne00"
			PatternInstance Time="30" Pattern="ne00"
			PatternInstance Time="31" Pattern="ne00"
		Channel Type="DPCM"
	Song Name="M3 Casino Swing" Length="32" LoopPoint="0" PatternLength="16" BeatLength="4" NoteLength="7" Groove="10-10-4-4" GroovePaddingMode="Middle"
		Channel Type="Square1"
			Pattern Name="s100"
				Note Time="20" Value="E4" Duration="8" Instrument="LeadJazz" Volume="12" VibratoSpeed="0" VibratoDepth="0"
				Note Time="28" Value="G4" Duration="20" Instrument="LeadJazz"
				Note Time="48" Value="A4" Duration="8" Instrument="LeadJazz"
			Pattern Name="s101"
				Note Time="0" Value="C5" Duration="28" Instrument="LeadJazz"
				Note Time="48" Value="A4" Duration="8" Instrument="LeadJazz"
			Pattern Name="s102"
				Note Time="20" Value="F4" Duration="8" Instrument="LeadJazz"
				Note Time="28" Value="E4" Duration="20" Instrument="LeadJazz"
				Note Time="48" Value="D4" Duration="8" Instrument="LeadJazz"
			Pattern Name="s103"
				Note Time="0" Value="D4" Duration="20" Instrument="LeadJazz"
				Note Time="20" Value="B3" Duration="36" Instrument="LeadJazz"
			Pattern Name="s104"
				Note Time="28" Value="E4" Duration="20" Instrument="LeadJazz"
				Note Time="48" Value="G4" Duration="8" Instrument="LeadJazz"
				Note Time="56" Value="A4" Duration="20" Instrument="LeadJazz"
				Note Time="76" Value="C5" Duration="8" Instrument="LeadJazz"
				Note Time="84" Value="A4" Duration="28" Instrument="LeadJazz"
			Pattern Name="s105"
				Note Time="0" Value="C#5" Duration="20" Instrument="LeadJazz"
				Note Time="20" Value="E5" Duration="28" Instrument="LeadJazz"
				Note Time="56" Value="C#5" Duration="20" Instrument="LeadJazz"
				Note Time="76" Value="A4" Duration="8" Instrument="LeadJazz"
			Pattern Name="s106"
				Note Time="0" Value="D5" Duration="20" Instrument="LeadJazz"
				Note Time="20" Value="C5" Duration="8" Instrument="LeadJazz"
				Note Time="28" Value="A4" Duration="20" Instrument="LeadJazz"
				Note Time="56" Value="B4" Duration="20" Instrument="LeadJazz"
				Note Time="76" Value="G4" Duration="8" Instrument="LeadJazz"
			Pattern Name="s107"
				Note Time="0" Value="C5" Duration="48" Instrument="LeadJazz" VibratoSpeed="8" VibratoDepth="2"
			Pattern Name="s108"
				Note Time="0" Value="F5" Duration="20" Instrument="LeadJazz"
				Note Time="20" Value="D5" Duration="8" Instrument="LeadJazz"
				Note Time="28" Value="C5" Duration="20" Instrument="LeadJazz"
				Note Time="56" Value="B4" Duration="20" Instrument="LeadJazz"
				Note Time="76" Value="F4" Duration="8" Instrument="LeadJazz"
			Pattern Name="s109"
				Note Time="0" Value="E4" Duration="20" Instrument="LeadJazz"
				Note Time="20" Value="G4" Duration="8" Instrument="LeadJazz"
				Note Time="28" Value="C5" Duration="56" Instrument="LeadJazz" VibratoSpeed="8" VibratoDepth="2"
			Pattern Name="s110"
				Note Time="0" Value="A4" Duration="20" Instrument="LeadJazz" Volume="14" VibratoSpeed="0" VibratoDepth="0"
				Note Time="20" Value="G4" Duration="8" Instrument="LeadJazz"
				Note Time="28" Value="A4" Duration="28" Instrument="LeadJazz"
				Note Time="56" Value="C5" Duration="20" Instrument="LeadJazz"
				Note Time="76" Value="E5" Duration="28" Instrument="LeadJazz"
			Pattern Name="s111"
				Note Time="0" Value="D5" Duration="28" Instrument="LeadJazz"
				Note Time="56" Value="C#5" Duration="20" Instrument="LeadJazz"
				Note Time="76" Value="A4" Duration="28" Instrument="LeadJazz"
			Pattern Name="s112"
				Note Time="20" Value="F5" Duration="28" Instrument="LeadJazz"
				Note Time="56" Value="E5" Duration="20" Instrument="LeadJazz"
				Note Time="76" Value="D5" Duration="8" Instrument="LeadJazz"
			Pattern Name="s113"
				Note Time="0" Value="C5" Duration="20" Instrument="LeadJazz"
				Note Time="20" Value="B4" Duration="36" Instrument="LeadJazz"
			Pattern Name="s114"
				Note Time="0" Value="A4" Duration="20" Instrument="LeadJazz"
				Note Time="20" Value="G4" Duration="8" Instrument="LeadJazz"
				Note Time="28" Value="A4" Duration="28" Instrument="LeadJazz"
				Note Time="56" Value="C5" Duration="20" Instrument="LeadJazz"
				Note Time="76" Value="E5" Duration="28" Instrument="LeadJazz"
			Pattern Name="s115"
				Note Time="0" Value="D5" Duration="20" Instrument="LeadJazz"
				Note Time="20" Value="D#5" Duration="8" Instrument="LeadJazz"
				Note Time="28" Value="D5" Duration="20" Instrument="LeadJazz"
				Note Time="48" Value="C5" Duration="8" Instrument="LeadJazz"
				Note Time="56" Value="A4" Duration="28" Instrument="LeadJazz"
			Pattern Name="s116"
				Note Time="0" Value="B4" Duration="20" Instrument="LeadJazz"
				Note Time="28" Value="D#5" Duration="48" Instrument="LeadJazz" VibratoSpeed="8" VibratoDepth="2"
			Pattern Name="s117"
				Note Time="0" Value="E4" Duration="20" Instrument="LeadJazz" Volume="12" VibratoSpeed="0" VibratoDepth="0"
				Note Time="28" Value="G4" Duration="20" Instrument="LeadJazz"
				Note Time="48" Value="A4" Duration="8" Instrument="LeadJazz"
			Pattern Name="s118"
				Note Time="0" Value="C5" Duration="28" Instrument="LeadJazz" VibratoSpeed="8" VibratoDepth="2"
			PatternInstance Time="0" Pattern="s100"
			PatternInstance Time="1" Pattern="s101"
			PatternInstance Time="2" Pattern="s102"
			PatternInstance Time="3" Pattern="s103"
			PatternInstance Time="4" Pattern="s104"
			PatternInstance Time="5" Pattern="s105"
			PatternInstance Time="6" Pattern="s106"
			PatternInstance Time="7" Pattern="s107"
			PatternInstance Time="8" Pattern="s100"
			PatternInstance Time="9" Pattern="s101"
			PatternInstance Time="10" Pattern="s102"
			PatternInstance Time="11" Pattern="s103"
			PatternInstance Time="12" Pattern="s104"
			PatternInstance Time="13" Pattern="s105"
			PatternInstance Time="14" Pattern="s108"
			PatternInstance Time="15" Pattern="s109"
			PatternInstance Time="16" Pattern="s110"
			PatternInstance Time="17" Pattern="s111"
			PatternInstance Time="18" Pattern="s112"
			PatternInstance Time="19" Pattern="s113"
			PatternInstance Time="20" Pattern="s114"
			PatternInstance Time="21" Pattern="s111"
			PatternInstance Time="22" Pattern="s115"
			PatternInstance Time="23" Pattern="s116"
			PatternInstance Time="24" Pattern="s117"
			PatternInstance Time="25" Pattern="s101"
			PatternInstance Time="26" Pattern="s102"
			PatternInstance Time="27" Pattern="s103"
			PatternInstance Time="28" Pattern="s104"
			PatternInstance Time="29" Pattern="s105"
			PatternInstance Time="30" Pattern="s106"
			PatternInstance Time="31" Pattern="s118"
		Channel Type="Square2"
			Pattern Name="s200"
				Note Time="20" Value="E4" Duration="4" Instrument="CompJazz"
				Note Time="48" Value="E4" Duration="4" Instrument="CompJazz"
				Note Time="76" Value="B4" Duration="4" Instrument="CompJazz"
				Note Time="104" Value="B4" Duration="4" Instrument="CompJazz"
			Pattern Name="s201"
				Note Time="20" Value="C4" Duration="4" Instrument="CompJazz"
				Note Time="48" Value="C4" Duration="4" Instrument="CompJazz"
				Note Time="76" Value="G4" Duration="4" Instrument="CompJazz"
				Note Time="104" Value="G4" Duration="4" Instrument="CompJazz"
			Pattern Name="s202"
				Note Time="20" Value="F4" Duration="4" Instrument="CompJazz"
				Note Time="48" Value="F4" Duration="4" Instrument="CompJazz"
				Note Time="76" Value="C5" Duration="4" Instrument="CompJazz"
				Note Time="104" Value="C5" Duration="4" Instrument="CompJazz"
			Pattern Name="s203"
				Note Time="20" Value="B3" Duration="4" Instrument="CompJazz"
				Note Time="48" Value="B3" Duration="4" Instrument="CompJazz"
				Note Time="76" Value="F4" Duration="4" Instrument="CompJazz"
				Note Time="104" Value="F4" Duration="4" Instrument="CompJazz"
			Pattern Name="s204"
				Note Time="20" Value="C#4" Duration="4" Instrument="CompJazz"
				Note Time="48" Value="C#4" Duration="4" Instrument="CompJazz"
				Note Time="76" Value="G4" Duration="4" Instrument="CompJazz"
				Note Time="104" Value="G4" Duration="4" Instrument="CompJazz"
			Pattern Name="s205"
				Note Time="20" Value="F4" Duration="4" Instrument="CompJazz"
				Note Time="48" Value="F4" Duration="4" Instrument="CompJazz"
				Note Time="76" Value="B3" Duration="4" Instrument="CompJazz"
				Note Time="104" Value="B3" Duration="4" Instrument="CompJazz"
			Pattern Name="s206"
				Note Time="20" Value="A3" Duration="4" Instrument="CompJazz"
				Note Time="48" Value="A3" Duration="4" Instrument="CompJazz"
				Note Time="76" Value="E4" Duration="4" Instrument="CompJazz"
				Note Time="104" Value="E4" Duration="4" Instrument="CompJazz"
			Pattern Name="s207"
				Note Time="20" Value="G3" Duration="4" Instrument="CompJazz"
				Note Time="48" Value="G3" Duration="4" Instrument="CompJazz"
				Note Time="76" Value="C#4" Duration="4" Instrument="CompJazz"
				Note Time="104" Value="C#4" Duration="4" Instrument="CompJazz"
			Pattern Name="s208"
				Note Time="20" Value="B3" Duration="4" Instrument="CompJazz"
				Note Time="48" Value="B3" Duration="4" Instrument="CompJazz"
			PatternInstance Time="0" Pattern="s200"
			PatternInstance Time="1" Pattern="s201"
			PatternInstance Time="2" Pattern="s202"
			PatternInstance Time="3" Pattern="s203"
			PatternInstance Time="4" Pattern="s200"
			PatternInstance Time="5" Pattern="s204"
			PatternInstance Time="6" Pattern="s205"
			PatternInstance Time="7" Pattern="s200"
			PatternInstance Time="8" Pattern="s200"
			PatternInstance Time="9" Pattern="s201"
			PatternInstance Time="10" Pattern="s202"
			PatternInstance Time="11" Pattern="s203"
			PatternInstance Time="12" Pattern="s200"
			PatternInstance Time="13" Pattern="s204"
			PatternInstance Time="14" Pattern="s205"
			PatternInstance Time="15" Pattern="s200"
			PatternInstance Time="16" Pattern="s206"
			PatternInstance Time="17" Pattern="s207"
			PatternInstance Time="18" Pattern="s202"
			PatternInstance Time="19" Pattern="s203"
			PatternInstance Time="20" Pattern="s206"
			PatternInstance Time="21" Pattern="s207"
			PatternInstance Time="22" Pattern="s202"
			PatternInstance Time="23" Pattern="s208"
			PatternInstance Time="24" Pattern="s200"
			PatternInstance Time="25" Pattern="s201"
			PatternInstance Time="26" Pattern="s202"
			PatternInstance Time="27" Pattern="s203"
			PatternInstance Time="28" Pattern="s200"
			PatternInstance Time="29" Pattern="s204"
			PatternInstance Time="30" Pattern="s205"
			PatternInstance Time="31" Pattern="s200"
		Channel Type="Triangle"
			Pattern Name="te00"
				Note Time="0" Value="C2" Duration="28" Instrument="BassJazz"
				Note Time="28" Value="E2" Duration="28" Instrument="BassJazz"
				Note Time="56" Value="G2" Duration="28" Instrument="BassJazz"
				Note Time="84" Value="A2" Duration="28" Instrument="BassJazz"
			Pattern Name="te01"
				Note Time="0" Value="A2" Duration="28" Instrument="BassJazz"
				Note Time="28" Value="G2" Duration="28" Instrument="BassJazz"
				Note Time="56" Value="E2" Duration="28" Instrument="BassJazz"
				Note Time="84" Value="C2" Duration="28" Instrument="BassJazz"
			Pattern Name="te02"
				Note Time="0" Value="D2" Duration="28" Instrument="BassJazz"
				Note Time="28" Value="F2" Duration="28" Instrument="BassJazz"
				Note Time="56" Value="A2" Duration="28" Instrument="BassJazz"
				Note Time="84" Value="C3" Duration="28" Instrument="BassJazz"
			Pattern Name="te03"
				Note Time="0" Value="B2" Duration="28" Instrument="BassJazz"
				Note Time="28" Value="G2" Duration="28" Instrument="BassJazz"
				Note Time="56" Value="F2" Duration="28" Instrument="BassJazz"
				Note Time="84" Value="D2" Duration="28" Instrument="BassJazz"
			Pattern Name="te04"
				Note Time="0" Value="C2" Duration="28" Instrument="BassJazz"
				Note Time="28" Value="E2" Duration="28" Instrument="BassJazz"
				Note Time="56" Value="G2" Duration="28" Instrument="BassJazz"
				Note Time="84" Value="A#2" Duration="28" Instrument="BassJazz"
			Pattern Name="te05"
				Note Time="0" Value="A2" Duration="28" Instrument="BassJazz"
				Note Time="28" Value="C#3" Duration="28" Instrument="BassJazz"
				Note Time="56" Value="E3" Duration="28" Instrument="BassJazz"
				Note Time="84" Value="C#3" Duration="28" Instrument="BassJazz"
			Pattern Name="te06"
				Note Time="0" Value="D3" Duration="28" Instrument="BassJazz"
				Note Time="28" Value="A2" Duration="28" Instrument="BassJazz"
				Note Time="56" Value="G2" Duration="28" Instrument="BassJazz"
				Note Time="84" Value="B2" Duration="28" Instrument="BassJazz"
			Pattern Name="te07"
				Note Time="0" Value="C3" Duration="28" Instrument="BassJazz"
				Note Time="28" Value="G2" Duration="28" Instrument="BassJazz"
				Note Time="56" Value="E2" Duration="28" Instrument="BassJazz"
				Note Time="84" Value="G2" Duration="28" Instrument="BassJazz"
			Pattern Name="te08"
				Note Time="0" Value="F2" Duration="28" Instrument="BassJazz"
				Note Time="28" Value="A2" Duration="28" Instrument="BassJazz"
				Note Time="56" Value="C3" Duration="28" Instrument="BassJazz"
				Note Time="84" Value="A2" Duration="28" Instrument="BassJazz"
			Pattern Name="te09"
				Note Time="0" Value="E2" Duration="28" Instrument="BassJazz"
				Note Time="28" Value="G2" Duration="28" Instrument="BassJazz"
				Note Time="56" Value="A2" Duration="28" Instrument="BassJazz"
				Note Time="84" Value="C#3" Duration="28" Instrument="BassJazz"
			Pattern Name="te10"
				Note Time="0" Value="D2" Duration="28" Instrument="BassJazz"
				Note Time="28" Value="F2" Duration="28" Instrument="BassJazz"
				Note Time="56" Value="A2" Duration="28" Instrument="BassJazz"
				Note Time="84" Value="F2" Duration="28" Instrument="BassJazz"
			Pattern Name="te11"
				Note Time="0" Value="G2" Duration="28" Instrument="BassJazz"
				Note Time="28" Value="B2" Duration="28" Instrument="BassJazz"
				Note Time="56" Value="D3" Duration="28" Instrument="BassJazz"
				Note Time="84" Value="B2" Duration="28" Instrument="BassJazz"
			Pattern Name="te12"
				Note Time="0" Value="F2" Duration="28" Instrument="BassJazz"
				Note Time="28" Value="C3" Duration="28" Instrument="BassJazz"
				Note Time="56" Value="A2" Duration="28" Instrument="BassJazz"
				Note Time="84" Value="F2" Duration="28" Instrument="BassJazz"
			Pattern Name="te13"
				Note Time="0" Value="E2" Duration="28" Instrument="BassJazz"
				Note Time="28" Value="B2" Duration="28" Instrument="BassJazz"
				Note Time="56" Value="A2" Duration="28" Instrument="BassJazz"
				Note Time="84" Value="G2" Duration="28" Instrument="BassJazz"
			Pattern Name="te14"
				Note Time="0" Value="D2" Duration="28" Instrument="BassJazz"
				Note Time="28" Value="A2" Duration="28" Instrument="BassJazz"
				Note Time="56" Value="F2" Duration="28" Instrument="BassJazz"
				Note Time="84" Value="D2" Duration="28" Instrument="BassJazz"
			Pattern Name="te15"
				Note Time="0" Value="G2" Duration="28" Instrument="BassJazz"
				Note Time="28" Value="B2" Duration="28" Instrument="BassJazz"
				Note Time="56" Value="D#3" Duration="28" Instrument="BassJazz"
				Note Time="84" Value="B2" Duration="28" Instrument="BassJazz"
			Pattern Name="te16"
				Note Time="0" Value="C2" Duration="28" Instrument="BassJazz"
				Note Time="28" Value="E2" Duration="28" Instrument="BassJazz"
				Note Time="56" Value="G2" Duration="28" Instrument="BassJazz"
				Note Time="84" Value="B1" Duration="28" Instrument="BassJazz"
			PatternInstance Time="0" Pattern="te00"
			PatternInstance Time="1" Pattern="te01"
			PatternInstance Time="2" Pattern="te02"
			PatternInstance Time="3" Pattern="te03"
			PatternInstance Time="4" Pattern="te04"
			PatternInstance Time="5" Pattern="te05"
			PatternInstance Time="6" Pattern="te06"
			PatternInstance Time="7" Pattern="te07"
			PatternInstance Time="8" Pattern="te00"
			PatternInstance Time="9" Pattern="te01"
			PatternInstance Time="10" Pattern="te02"
			PatternInstance Time="11" Pattern="te03"
			PatternInstance Time="12" Pattern="te04"
			PatternInstance Time="13" Pattern="te05"
			PatternInstance Time="14" Pattern="te06"
			PatternInstance Time="15" Pattern="te07"
			PatternInstance Time="16" Pattern="te08"
			PatternInstance Time="17" Pattern="te09"
			PatternInstance Time="18" Pattern="te10"
			PatternInstance Time="19" Pattern="te11"
			PatternInstance Time="20" Pattern="te12"
			PatternInstance Time="21" Pattern="te13"
			PatternInstance Time="22" Pattern="te14"
			PatternInstance Time="23" Pattern="te15"
			PatternInstance Time="24" Pattern="te00"
			PatternInstance Time="25" Pattern="te01"
			PatternInstance Time="26" Pattern="te02"
			PatternInstance Time="27" Pattern="te03"
			PatternInstance Time="28" Pattern="te04"
			PatternInstance Time="29" Pattern="te05"
			PatternInstance Time="30" Pattern="te06"
			PatternInstance Time="31" Pattern="te16"
		Channel Type="Noise"
			Pattern Name="ne00"
				Note Time="0" Value="F#5" Duration="10" Instrument="HatLoud"
				Note Time="20" Value="F#5" Duration="4" Instrument="HatSoft"
				Note Time="28" Value="D4" Duration="10" Instrument="SnareHot"
				Note Time="48" Value="F#5" Duration="4" Instrument="HatSoft"
				Note Time="56" Value="F#5" Duration="10" Instrument="HatLoud"
				Note Time="76" Value="F#5" Duration="4" Instrument="HatSoft"
				Note Time="84" Value="D4" Duration="10" Instrument="SnareHot"
				Note Time="104" Value="F#5" Duration="4" Instrument="HatSoft"
			Pattern Name="ne01"
				Note Time="0" Value="F#5" Duration="10" Instrument="HatLoud"
				Note Time="20" Value="F#5" Duration="4" Instrument="HatSoft"
				Note Time="28" Value="D4" Duration="10" Instrument="SnareHot"
				Note Time="48" Value="F#5" Duration="4" Instrument="HatSoft"
				Note Time="56" Value="F#5" Duration="10" Instrument="HatLoud"
				Note Time="76" Value="F#5" Duration="4" Instrument="HatSoft"
				Note Time="76" Value="D4" Duration="4" Instrument="SnareHot"
				Note Time="84" Value="D4" Duration="10" Instrument="SnareHot"
				Note Time="104" Value="D4" Duration="4" Instrument="SnareHot"
			PatternInstance Time="0" Pattern="ne00"
			PatternInstance Time="1" Pattern="ne00"
			PatternInstance Time="2" Pattern="ne00"
			PatternInstance Time="3" Pattern="ne00"
			PatternInstance Time="4" Pattern="ne00"
			PatternInstance Time="5" Pattern="ne00"
			PatternInstance Time="6" Pattern="ne00"
			PatternInstance Time="7" Pattern="ne01"
			PatternInstance Time="8" Pattern="ne00"
			PatternInstance Time="9" Pattern="ne00"
			PatternInstance Time="10" Pattern="ne00"
			PatternInstance Time="11" Pattern="ne00"
			PatternInstance Time="12" Pattern="ne00"
			PatternInstance Time="13" Pattern="ne00"
			PatternInstance Time="14" Pattern="ne00"
			PatternInstance Time="15" Pattern="ne01"
			PatternInstance Time="16" Pattern="ne00"
			PatternInstance Time="17" Pattern="ne00"
			PatternInstance Time="18" Pattern="ne00"
			PatternInstance Time="19" Pattern="ne00"
			PatternInstance Time="20" Pattern="ne00"
			PatternInstance Time="21" Pattern="ne00"
			PatternInstance Time="22" Pattern="ne00"
			PatternInstance Time="23" Pattern="ne01"
			PatternInstance Time="24" Pattern="ne00"
			PatternInstance Time="25" Pattern="ne00"
			PatternInstance Time="26" Pattern="ne00"
			PatternInstance Time="27" Pattern="ne00"
			PatternInstance Time="28" Pattern="ne00"
			PatternInstance Time="29" Pattern="ne00"
			PatternInstance Time="30" Pattern="ne00"
			PatternInstance Time="31" Pattern="ne01"
		Channel Type="DPCM"
	Song Name="M4 Title Ballad" Length="16" LoopPoint="0" PatternLength="16" BeatLength="4" NoteLength="14" Groove="14" GroovePaddingMode="Middle"
		Channel Type="Square1"
			Pattern Name="s100"
				Note Time="28" Value="E4" Duration="28" Instrument="LeadJazz" Volume="12" VibratoSpeed="0" VibratoDepth="0"
				Note Time="56" Value="G4" Duration="28" Instrument="LeadJazz"
				Note Time="84" Value="A4" Duration="28" Instrument="LeadJazz"
			Pattern Name="s101"
				Note Time="0" Value="C5" Duration="56" Instrument="LeadJazz"
				Note Time="84" Value="A4" Duration="28" Instrument="LeadJazz"
			Pattern Name="s102"
				Note Time="28" Value="F4" Duration="28" Instrument="LeadJazz"
				Note Time="56" Value="E4" Duration="28" Instrument="LeadJazz"
				Note Time="84" Value="D4" Duration="28" Instrument="LeadJazz"
			Pattern Name="s103"
				Note Time="0" Value="D4" Duration="28" Instrument="LeadJazz"
				Note Time="28" Value="B3" Duration="84" Instrument="LeadJazz"
			Pattern Name="s104"
				Note Time="56" Value="E4" Duration="28" Instrument="LeadJazz"
				Note Time="84" Value="G4" Duration="28" Instrument="LeadJazz"
				Note Time="112" Value="A4" Duration="28" Instrument="LeadJazz"
				Note Time="140" Value="C5" Duration="28" Instrument="LeadJazz"
				Note Time="168" Value="A4" Duration="56" Instrument="LeadJazz"
			Pattern Name="s105"
				Note Time="0" Value="C#5" Duration="28" Instrument="LeadJazz"
				Note Time="28" Value="E5" Duration="56" Instrument="LeadJazz"
				Note Time="112" Value="C#5" Duration="28" Instrument="LeadJazz"
				Note Time="140" Value="A4" Duration="28" Instrument="LeadJazz"
			Pattern Name="s106"
				Note Time="0" Value="D5" Duration="28" Instrument="LeadJazz"
				Note Time="28" Value="C5" Duration="28" Instrument="LeadJazz"
				Note Time="56" Value="A4" Duration="28" Instrument="LeadJazz"
				Note Time="112" Value="B4" Duration="28" Instrument="LeadJazz"
				Note Time="140" Value="G4" Duration="28" Instrument="LeadJazz"
			Pattern Name="s107"
				Note Time="0" Value="C5" Duration="84" Instrument="LeadJazz" VibratoSpeed="7" VibratoDepth="3"
			Pattern Name="s108"
				Note Time="0" Value="F5" Duration="28" Instrument="LeadJazz"
				Note Time="28" Value="D5" Duration="28" Instrument="LeadJazz"
				Note Time="56" Value="C5" Duration="28" Instrument="LeadJazz"
				Note Time="112" Value="B4" Duration="28" Instrument="LeadJazz"
				Note Time="140" Value="F4" Duration="28" Instrument="LeadJazz"
			Pattern Name="s109"
				Note Time="0" Value="E4" Duration="28" Instrument="LeadJazz"
				Note Time="28" Value="G4" Duration="28" Instrument="LeadJazz"
				Note Time="56" Value="C5" Duration="112" Instrument="LeadJazz" VibratoSpeed="7" VibratoDepth="3"
			PatternInstance Time="0" Pattern="s100"
			PatternInstance Time="1" Pattern="s101"
			PatternInstance Time="2" Pattern="s102"
			PatternInstance Time="3" Pattern="s103"
			PatternInstance Time="4" Pattern="s104"
			PatternInstance Time="5" Pattern="s105"
			PatternInstance Time="6" Pattern="s106"
			PatternInstance Time="7" Pattern="s107"
			PatternInstance Time="8" Pattern="s100"
			PatternInstance Time="9" Pattern="s101"
			PatternInstance Time="10" Pattern="s102"
			PatternInstance Time="11" Pattern="s103"
			PatternInstance Time="12" Pattern="s104"
			PatternInstance Time="13" Pattern="s105"
			PatternInstance Time="14" Pattern="s108"
			PatternInstance Time="15" Pattern="s109"
		Channel Type="Square2"
			Pattern Name="s200"
				Note Time="56" Value="E4" Duration="56" Instrument="PadNight"
			Pattern Name="s201"
				Note Time="56" Value="C4" Duration="56" Instrument="PadNight"
			Pattern Name="s202"
				Note Time="56" Value="F4" Duration="56" Instrument="PadNight"
			Pattern Name="s203"
				Note Time="56" Value="B3" Duration="56" Instrument="PadNight"
			Pattern Name="s204"
				Note Time="56" Value="C#4" Duration="56" Instrument="PadNight"
			Pattern Name="s205"
				Note Time="56" Value="F4" Duration="56" Instrument="PadNight"
				Note Time="168" Value="B3" Duration="56" Instrument="PadNight"
			PatternInstance Time="0" Pattern="s200"
			PatternInstance Time="1" Pattern="s201"
			PatternInstance Time="2" Pattern="s202"
			PatternInstance Time="3" Pattern="s203"
			PatternInstance Time="4" Pattern="s200"
			PatternInstance Time="5" Pattern="s204"
			PatternInstance Time="6" Pattern="s205"
			PatternInstance Time="7" Pattern="s200"
			PatternInstance Time="8" Pattern="s200"
			PatternInstance Time="9" Pattern="s201"
			PatternInstance Time="10" Pattern="s202"
			PatternInstance Time="11" Pattern="s203"
			PatternInstance Time="12" Pattern="s200"
			PatternInstance Time="13" Pattern="s204"
			PatternInstance Time="14" Pattern="s205"
			PatternInstance Time="15" Pattern="s200"
		Channel Type="Triangle"
			Pattern Name="te00"
				Note Time="0" Value="C2" Duration="112" Instrument="BassJazz"
				Note Time="112" Value="G2" Duration="112" Instrument="BassJazz"
			Pattern Name="te01"
				Note Time="0" Value="A2" Duration="112" Instrument="BassJazz"
				Note Time="112" Value="E2" Duration="112" Instrument="BassJazz"
			Pattern Name="te02"
				Note Time="0" Value="D2" Duration="112" Instrument="BassJazz"
				Note Time="112" Value="A2" Duration="112" Instrument="BassJazz"
			Pattern Name="te03"
				Note Time="0" Value="G2" Duration="112" Instrument="BassJazz"
				Note Time="112" Value="D2" Duration="112" Instrument="BassJazz"
			Pattern Name="te04"
				Note Time="0" Value="D2" Duration="112" Instrument="BassJazz"
				Note Time="112" Value="G2" Duration="112" Instrument="BassJazz"
			PatternInstance Time="0" Pattern="te00"
			PatternInstance Time="1" Pattern="te01"
			PatternInstance Time="2" Pattern="te02"
			PatternInstance Time="3" Pattern="te03"
			PatternInstance Time="4" Pattern="te00"
			PatternInstance Time="5" Pattern="te01"
			PatternInstance Time="6" Pattern="te04"
			PatternInstance Time="7" Pattern="te00"
			PatternInstance Time="8" Pattern="te00"
			PatternInstance Time="9" Pattern="te01"
			PatternInstance Time="10" Pattern="te02"
			PatternInstance Time="11" Pattern="te03"
			PatternInstance Time="12" Pattern="te00"
			PatternInstance Time="13" Pattern="te01"
			PatternInstance Time="14" Pattern="te04"
			PatternInstance Time="15" Pattern="te00"
		Channel Type="Noise"
		Channel Type="DPCM"
